<svg xmlns="http://www.w3.org/2000/svg" width="16.721" height="20.428" viewBox="0 0 16.721 20.428">
  <g id="file" transform="translate(-86.9)">
    <path id="Path_23" data-name="Path 23" d="M210.931,108.4h-.6v14.675a1.771,1.771,0,0,1-1.768,1.768H197.7v.544a1.129,1.129,0,0,0,1.129,1.128h12.1a1.129,1.129,0,0,0,1.129-1.128V109.529A1.127,1.127,0,0,0,210.931,108.4Z" transform="translate(-108.436 -106.088)" fill="#1f50b3"/>
    <path id="Path_24" data-name="Path 24" d="M94.076,18.116h6.05a1.129,1.129,0,0,0,1.129-1.128V1.129A1.129,1.129,0,0,0,100.126,0H92.065V.373a1.1,1.1,0,0,1,.006.119V3.584a1.591,1.591,0,0,1-1.589,1.589H87.391c-.032,0-.066,0-.1,0H86.9V16.987a1.129,1.129,0,0,0,1.129,1.128h6.048ZM94.3,14.28H90.36a.533.533,0,0,1,0-1.067h3.947a.533.533,0,1,1,0,1.067Zm3.947-2.722H90.36a.533.533,0,0,1,0-1.067h7.891a.533.533,0,0,1,0,1.067ZM90.36,7.6h7.891a.533.533,0,0,1,0,1.067H90.36a.533.533,0,0,1,0-1.067Z" fill="#1f50b3"/>
    <path id="Path_25" data-name="Path 25" d="M88.023,5.316h3.1a.947.947,0,0,0,.939-.939v-3.1A.475.475,0,0,0,91.583.8a.462.462,0,0,0-.333.141L87.686,4.506A.475.475,0,0,0,88.023,5.316Z" transform="translate(-0.632 -0.783)" fill="#1f50b3"/>
  </g>
</svg>
