<svg xmlns="http://www.w3.org/2000/svg" width="20.433" height="16.232" viewBox="0 0 20.433 16.232">
  <g id="speaker-filled-audio-tool" transform="translate(0 -9.565)">
    <path id="Path_597" data-name="Path 597" d="M10.222,24.05a.928.928,0,0,1-1.52.714L3.63,20.56H.928A.928.928,0,0,1,0,19.633v-3.7a.928.928,0,0,1,.928-.928h2.7L8.7,10.8a.928.928,0,0,1,1.52.715V24.05Zm3.566-1.45-.067,0a.927.927,0,0,1-.656-.272l-.124-.125A.927.927,0,0,1,12.852,21a5.4,5.4,0,0,0-.143-6.612.927.927,0,0,1,.064-1.241l.124-.124a.908.908,0,0,1,.7-.27.929.929,0,0,1,.672.339,7.431,7.431,0,0,1,.193,9.14A.928.928,0,0,1,13.788,22.6Zm3.836,2.868a.929.929,0,0,1-.67.328h-.039a.927.927,0,0,1-.656-.272l-.122-.122a.928.928,0,0,1-.054-1.253,9.888,9.888,0,0,0-.164-12.92.928.928,0,0,1,.037-1.27l.122-.122a.9.9,0,0,1,.684-.273.928.928,0,0,1,.667.311,11.914,11.914,0,0,1,.2,15.591Z" fill="#2e2a6d"/>
  </g>
</svg>
