<svg xmlns="http://www.w3.org/2000/svg" width="18.155" height="23.349" viewBox="0 0 18.155 23.349">
  <g id="refresh" transform="translate(-54.637)">
    <g id="Group_651" data-name="Group 651" transform="translate(54.637 0)">
      <path id="Path_596" data-name="Path 596" d="M54.7,12.492a8.911,8.911,0,0,1,8.741-9.939V.158a.172.172,0,0,1,.276-.124l4.929,3.622a.151.151,0,0,1,0,.242L63.718,7.52a.171.171,0,0,1-.276-.124V5.006A6.453,6.453,0,0,0,57.606,8.96a6.373,6.373,0,0,0,.908,6.5,1.23,1.23,0,1,1-1.934,1.521A8.789,8.789,0,0,1,54.7,12.492Zm14.231-4.6a6.373,6.373,0,0,1,.908,6.5A6.445,6.445,0,0,1,64,18.343V15.952a.172.172,0,0,0-.276-.124L58.794,19.45a.151.151,0,0,0,0,.242l4.924,3.622a.171.171,0,0,0,.276-.124V20.8a8.911,8.911,0,0,0,8.741-9.939A8.743,8.743,0,0,0,70.857,6.37a1.229,1.229,0,1,0-1.93,1.521Z" transform="translate(-54.637 0)" fill="#2e2a6d"/>
    </g>
  </g>
</svg>
