<svg id="statistics" xmlns="http://www.w3.org/2000/svg" width="20.863" height="20.863" viewBox="0 0 20.863 20.863">
  <path id="Path_11" data-name="Path 11" d="M32.841,9.515a1.862,1.862,0,0,0,1.274-.5l1.816.88a1.7,1.7,0,0,0-.023.216,1.841,1.841,0,0,0,3.681,0,1.718,1.718,0,0,0-.185-.764l2.464-2.388a1.865,1.865,0,0,0,.788.179A1.815,1.815,0,0,0,44.5,5.352a1.709,1.709,0,0,0-.092-.528l2.141-1.556a1.869,1.869,0,0,0,1.019.3,1.815,1.815,0,0,0,1.841-1.784,1.841,1.841,0,0,0-3.681,0,1.709,1.709,0,0,0,.092.528L43.675,3.868a1.869,1.869,0,0,0-1.019-.3,1.815,1.815,0,0,0-1.841,1.784A1.718,1.718,0,0,0,41,6.116L38.537,8.5a1.853,1.853,0,0,0-2.062.323l-1.816-.88a1.7,1.7,0,0,0,.023-.216,1.841,1.841,0,1,0-1.84,1.784Zm0,0" transform="translate(-29.771)" fill="#1f50b3"/>
  <path id="Path_12" data-name="Path 12" d="M20.252,163.68H19.6V150.618a.614.614,0,0,0-.611-.618H16.544a.614.614,0,0,0-.611.618V163.68H14.71v-9.354a.614.614,0,0,0-.611-.618H11.654a.614.614,0,0,0-.611.618v9.354H9.82v-4.409a.614.614,0,0,0-.611-.618H6.764a.614.614,0,0,0-.611.618v4.409H4.931V156.8a.614.614,0,0,0-.611-.618H1.874a.614.614,0,0,0-.611.618v6.881H.611a.618.618,0,0,0,0,1.236H20.252a.618.618,0,0,0,0-1.236Zm0,0" transform="translate(0 -144.053)" fill="#1f50b3"/>
</svg>
