<svg id="waste-bin" xmlns="http://www.w3.org/2000/svg" width="11.374" height="15.509" viewBox="0 0 11.374 15.509">
  <path id="Path_28" data-name="Path 28" d="M37.375,14.456a1.408,1.408,0,0,0,1.42,1.053h5.376a1.408,1.408,0,0,0,1.42-1.053L46.653,4.136H36.314Zm6.176-8.77a.517.517,0,0,1,1.034,0l-.517,7.754a.517.517,0,1,1-1.034,0Zm-2.585,0a.517.517,0,1,1,1.034,0v7.754a.517.517,0,1,1-1.034,0ZM38.9,5.17a.517.517,0,0,1,.517.517l.517,7.754a.517.517,0,0,1-1.034,0l-.517-7.754A.517.517,0,0,1,38.9,5.17Zm7.444-3.1H44.068V1.034C44.068.25,43.815,0,43.035,0h-3.1A.9.9,0,0,0,38.9,1.034V2.069H36.624a.8.8,0,0,0-.827.776.8.8,0,0,0,.827.776h9.719a.8.8,0,0,0,.827-.776A.8.8,0,0,0,46.343,2.069Zm-3.309,0h-3.1V1.034h3.1V2.069Z" transform="translate(-35.797)" fill="#fff" fill-rule="evenodd"/>
</svg>
