<svg xmlns="http://www.w3.org/2000/svg" width="23.171" height="18.207" viewBox="0 0 23.171 18.207">
  <g id="speech-bubbles-comment-option" transform="translate(0 -54.804)">
    <g id="Group_412" data-name="Group 412" transform="translate(0 54.804)">
      <path id="Path_176" data-name="Path 176" d="M13.674,67.159a8.211,8.211,0,0,0,3.317-2.412,5.15,5.15,0,0,0,0-6.646,8.212,8.212,0,0,0-3.316-2.412A11.646,11.646,0,0,0,9.1,54.8a11.65,11.65,0,0,0-4.571.886A8.212,8.212,0,0,0,1.215,58.1,5.222,5.222,0,0,0,0,61.424a5.081,5.081,0,0,0,.918,2.9A7.556,7.556,0,0,0,3.44,66.61q-.129.311-.265.569a3.278,3.278,0,0,1-.323.5q-.187.239-.291.375t-.336.381q-.233.246-.3.323c0-.009-.017.011-.052.058s-.054.069-.058.065-.022.017-.052.064l-.045.071-.032.064a.277.277,0,0,0-.026.078.506.506,0,0,0-.007.084.26.26,0,0,0,.013.084.428.428,0,0,0,.149.272.4.4,0,0,0,.265.1h.039a10.843,10.843,0,0,0,1.112-.207,10.873,10.873,0,0,0,3.595-1.655,12.986,12.986,0,0,0,2.276.207A11.636,11.636,0,0,0,13.674,67.159Z" transform="translate(0 -54.804)" fill="#1f50b3"/>
      <path id="Path_177" data-name="Path 177" d="M190.154,165.756a5.047,5.047,0,0,0-.052-5.877,7.665,7.665,0,0,0-2.638-2.3,6.654,6.654,0,0,1-.569,5.25,8.655,8.655,0,0,1-2.483,2.741A11.45,11.45,0,0,1,181,167.236a13.661,13.661,0,0,1-4,.582q-.388,0-1.138-.051a10.865,10.865,0,0,0,6.1,1.707,12.992,12.992,0,0,0,2.276-.207,10.327,10.327,0,0,0,4.707,1.862.39.39,0,0,0,.285-.091.478.478,0,0,0,.168-.284c0-.052,0-.08.013-.084s.011-.032-.007-.084l-.026-.078-.032-.064a.62.62,0,0,0-.045-.071.549.549,0,0,0-.052-.065c-.013-.013-.032-.035-.058-.064s-.043-.049-.052-.058q-.065-.078-.3-.323t-.336-.381q-.1-.136-.291-.375a3.267,3.267,0,0,1-.323-.5q-.136-.259-.265-.569A7.587,7.587,0,0,0,190.154,165.756Z" transform="translate(-167.901 -152.923)" fill="#1f50b3"/>
    </g>
  </g>
</svg>
