<svg xmlns="http://www.w3.org/2000/svg" width="15.602" height="20.513" viewBox="0 0 15.602 20.513">
  <g id="man-user" transform="translate(-41.895)">
    <path id="Path_85" data-name="Path 85" d="M108.665,10.032c2.281,0,4.13-2.246,4.13-5.016S112.187,0,108.665,0s-4.13,2.246-4.13,5.016S106.384,10.032,108.665,10.032Z" transform="translate(-58.969 0)" fill="#fff"/>
    <path id="Path_86" data-name="Path 86" d="M41.9,300.459c0-.169,0-.048,0,0Z" transform="translate(0 -282.768)" fill="#fff"/>
    <path id="Path_87" data-name="Path 87" d="M308.085,301.64c0-.046,0-.321,0,0Z" transform="translate(-250.589 -283.817)" fill="#fff"/>
    <path id="Path_88" data-name="Path 88" d="M57.5,184.811c-.076-4.826-.707-6.2-5.53-7.071a3.388,3.388,0,0,1-4.523,0c-4.77.861-5.439,2.216-5.527,6.915-.007.384-.011.4-.012.359,0,.083,0,.238,0,.507,0,0,1.148,2.315,7.8,2.315s7.8-2.315,7.8-2.315c0-.173,0-.293,0-.375A3.1,3.1,0,0,1,57.5,184.811Z" transform="translate(-0.012 -167.323)" fill="#fff"/>
  </g>
</svg>
