<svg xmlns="http://www.w3.org/2000/svg" width="22.863" height="22.352" viewBox="0 0 22.863 22.352">
  <g id="logout" transform="translate(0 -1.374)">
    <path id="Path_30" data-name="Path 30" d="M16.015,6.346V2.491A1.12,1.12,0,0,0,14.9,1.374H1.117A1.121,1.121,0,0,0,0,2.491V18.283a1.137,1.137,0,0,0,.6.987l8.492,4.395a.563.563,0,0,0,.819-.5V18.879H14.9a1.12,1.12,0,0,0,1.117-1.117V11.653H13.78v4.432a.549.549,0,0,1-.559.559h-3.3V7.166a1.137,1.137,0,0,0-.6-.987L4.32,3.609h8.9a.549.549,0,0,1,.559.559v2.2h2.235Z" fill="#1f50b3"/>
    <path id="Path_31" data-name="Path 31" d="M68.751,16.7l3.631,3.631a1.114,1.114,0,0,1,0,1.62l-3.631,3.631a1.136,1.136,0,0,1-1.639.019,1.188,1.188,0,0,1,.037-1.639l1.639-1.62h-6.35a1.1,1.1,0,0,1-.838-.372,1.264,1.264,0,0,1,.279-1.918,1.194,1.194,0,0,1,.559-.149h6.35s-1.62-1.62-1.639-1.62a1.127,1.127,0,1,1,1.6-1.583Z" transform="translate(-49.868 -12.174)" fill="#1f50b3"/>
  </g>
</svg>
