<svg xmlns="http://www.w3.org/2000/svg" width="15.384" height="20.513" viewBox="0 0 15.384 20.513">
  <g id="lock" transform="translate(-64)">
    <g id="Group_646" data-name="Group 646" transform="translate(64)">
      <path id="Path_593" data-name="Path 593" d="M78.957,7.692H77.675V5.983a5.983,5.983,0,1,0-11.966,0V7.692H64.427A.427.427,0,0,0,64,8.12V18.8a1.711,1.711,0,0,0,1.709,1.709H77.675A1.711,1.711,0,0,0,79.384,18.8V8.12A.427.427,0,0,0,78.957,7.692Zm-5.985,8.927a.427.427,0,0,1-.425.475H70.838a.427.427,0,0,1-.425-.475l.27-2.424a1.691,1.691,0,0,1-.7-1.375,1.709,1.709,0,0,1,3.419,0,1.691,1.691,0,0,1-.7,1.375Zm2.139-8.927H68.273V5.983a3.419,3.419,0,1,1,6.837,0Z" transform="translate(-64)" fill="#fff"/>
    </g>
  </g>
</svg>
