<svg xmlns="http://www.w3.org/2000/svg" width="17.083" height="22.46" viewBox="0 0 17.083 22.46">
  <g id="man-user" transform="translate(-41.895)">
    <path id="Path_85" data-name="Path 85" d="M109.057,10.985c2.5,0,4.522-2.459,4.522-5.492S112.914,0,109.057,0s-4.522,2.459-4.522,5.492S106.56,10.985,109.057,10.985Z" transform="translate(-58.62 0)" fill="#1f50b3"/>
    <path id="Path_86" data-name="Path 86" d="M41.9,300.467c0-.185,0-.052,0,0Z" transform="translate(0 -281.096)" fill="#1f50b3"/>
    <path id="Path_87" data-name="Path 87" d="M308.085,301.654c0-.051,0-.351,0,0Z" transform="translate(-249.108 -282.139)" fill="#1f50b3"/>
    <path id="Path_88" data-name="Path 88" d="M58.979,185.483c-.084-5.284-.774-6.79-6.055-7.743a3.71,3.71,0,0,1-4.952,0c-5.223.943-5.955,2.426-6.052,7.571-.008.42-.012.442-.013.393,0,.091,0,.26,0,.555,0,0,1.257,2.535,8.54,2.535s8.54-2.535,8.54-2.535c0-.189,0-.321,0-.411A3.4,3.4,0,0,1,58.979,185.483Z" transform="translate(-0.012 -166.334)" fill="#1f50b3"/>
  </g>
</svg>
