<svg xmlns="http://www.w3.org/2000/svg" width="22.863" height="19.815" viewBox="0 0 22.863 19.815">
  <g id="desktop-monitor" transform="translate(0 -36.543)">
    <path id="Path_29" data-name="Path 29" d="M22.3,37.1a1.834,1.834,0,0,0-1.346-.56H1.905A1.835,1.835,0,0,0,.56,37.1,1.835,1.835,0,0,0,0,38.448V51.4A1.835,1.835,0,0,0,.56,52.75a1.835,1.835,0,0,0,1.346.559H8.383a2.491,2.491,0,0,1-.191.929,8.424,8.424,0,0,1-.381.833,1.317,1.317,0,0,0-.19.524.773.773,0,0,0,.762.763h6.1a.774.774,0,0,0,.762-.763,1.362,1.362,0,0,0-.191-.518,8.735,8.735,0,0,1-.381-.845,2.51,2.51,0,0,1-.191-.923h6.478A1.911,1.911,0,0,0,22.863,51.4V38.448A1.834,1.834,0,0,0,22.3,37.1Zm-.964,11.253a.386.386,0,0,1-.381.381H1.905a.386.386,0,0,1-.381-.381V38.448a.386.386,0,0,1,.381-.381H20.958a.386.386,0,0,1,.381.381v9.907Z" fill="#1f50b3"/>
  </g>
</svg>
