<svg xmlns="http://www.w3.org/2000/svg" width="88.446" height="80.498" viewBox="0 0 88.446 80.498">
  <g id="warning-sign" transform="translate(0 -24.9)">
    <path id="Path_598" data-name="Path 598" d="M85.94,82.561,56.895,32.225a14.65,14.65,0,0,0-25.375,0L1.963,83.423A14.651,14.651,0,0,0,14.651,105.4H73.8A14.646,14.646,0,0,0,85.94,82.561Zm-35.461,4.9a6.258,6.258,0,0,1-12.512,0v-.143a6.258,6.258,0,0,1,12.512,0Zm.144-41.207-3.1,27.035a3.307,3.307,0,0,1-6.607,0l-3.1-27.051c-.207-2.091.926-3.671,2.873-3.671h7.038C49.681,42.583,50.83,44.163,50.623,46.253Z" transform="translate(0)" fill="#f5af19"/>
  </g>
</svg>
